<?xml version="1.0" encoding="utf-8"?>
<!-- Generator: Adobe Illustrator 22.0.1, SVG Export Plug-In . SVG Version: 6.00 Build 0)  -->
<svg version="1.1" id="Layer_1" xmlns="http://www.w3.org/2000/svg" xmlns:xlink="http://www.w3.org/1999/xlink" x="0px" y="0px"
	 viewBox="0 0 1000 1000" style="enable-background:new 0 0 1000 1000;" xml:space="preserve">
<style type="text/css">
	.st0{fill:url(#SVGID_1_);}
	.st1{fill:url(#SVGID_2_);}
	.st2{fill:url(#SVGID_3_);}
	.st3{fill:url(#SVGID_4_);}
</style>
<g>
	<linearGradient id="SVGID_1_" gradientUnits="userSpaceOnUse" x1="238.815" y1="558.0551" x2="587.995" y2="558.0551">
		<stop  offset="0" style="stop-color:#1B75BC"/>
		<stop  offset="1" style="stop-color:#2E3192"/>
	</linearGradient>
	<path class="st0" d="M561.7,654.3c-11.9,0-22.4,7.9-25,19.1H273.8l254.8-254.8h-97c-2.5-5.7-8.5-9.5-15.1-9.5
		c-9.2,0-16.8,7.5-16.8,16.8c0,9.2,7.5,16.8,16.8,16.8c6.6,0,12.5-3.8,15.1-9.5h62L238.8,687.9h297.8c2.6,11.2,13.2,19.1,25,19.1
		c14.5,0,26.3-11.9,26.3-26.3C588,666.2,576.1,654.3,561.7,654.3z M416.5,435.1c-5,0-9.2-4.2-9.2-9.2c0-5,4.2-9.6,9.2-9.6
		c5,0,9.6,4.6,9.6,9.6C426.2,430.9,421.6,435.1,416.5,435.1z M561.7,695.8c-7.9,0-15.1-7.3-15.1-15.1c0-7.9,7.2-14.5,15.1-14.5
		c7.9,0,14.5,6.6,14.5,14.5C576.1,688.6,569.6,695.8,561.7,695.8z"/>
	<linearGradient id="SVGID_2_" gradientUnits="userSpaceOnUse" x1="249.005" y1="461.505" x2="761.185" y2="461.505">
		<stop  offset="0" style="stop-color:#F7941D"/>
		<stop  offset="1" style="stop-color:#F15A29"/>
	</linearGradient>
	<path class="st1" d="M734.9,543.4c-12.5,0-23,9.2-25.7,21h-79L596,598H433.2l244.5-244.5H412.2l-33.5-34.2h-78.3
		c-2-11.8-12.5-20.4-25.7-20.4c-14.5,0-25.7,11.8-25.7,26.3c0,13.8,11.2,25.6,25.7,25.6c11.9,0,21-7.2,25-17.1h73l21,21h-36.8
		c-2.7-7.8-9.2-12.4-17.1-12.4c-10.5,0-18.4,8.6-18.4,18.5c0,10.5,7.9,18.4,18.4,18.4c7.8,0,14.4-5.2,17.1-12.3h48.9l0.5,0.5h237.1
		l-65.8,65.8L443.9,566.9l-45.6,45.6h204.3l0.3-0.3H672c2,7.3,9.2,11.9,17.1,11.9c10.5,0,18.4-7.9,18.4-18.4
		c0-9.9-7.9-18.4-18.4-18.4c-7.9,0-15.1,5.3-17.1,12.5h-56.9l21.1-21.5h74.3c3.3,10.5,13.2,17.1,24.4,17.1
		c14.5,0,26.3-11.2,26.3-25.7S749.3,543.4,734.9,543.4z M274.7,339.7c-7.9,0-14.5-7.2-14.5-14.5c0-8.6,6.6-15.1,14.5-15.1
		c8.5,0,15.1,6.5,15.1,15.1C289.8,332.5,283.2,339.7,274.7,339.7z M339.8,371.3c-5.9,0-10.5-4.6-10.5-10.5c0-6,4.6-10.5,10.5-10.5
		c6,0,10.5,4.6,10.5,10.5C350.4,366.7,345.8,371.3,339.8,371.3z M689.1,595.8c5.9,0,10.5,4.6,10.5,9.9c0,5.9-4.6,10.5-10.5,10.5
		c-5.9,0-10.5-4.6-10.5-10.5C678.6,600.4,683.2,595.8,689.1,595.8z M734.9,584.2c-7.9,0-15.1-6.6-15.1-14.5
		c0-7.9,7.2-14.5,15.1-14.5c7.9,0,14.5,6.6,14.5,14.5C749.3,577.6,742.7,584.2,734.9,584.2z"/>
	<linearGradient id="SVGID_3_" gradientUnits="userSpaceOnUse" x1="412.015" y1="441.945" x2="761.185" y2="441.945">
		<stop  offset="0" style="stop-color:#1B75BC"/>
		<stop  offset="1" style="stop-color:#2E3192"/>
	</linearGradient>
	<path class="st2" d="M761.2,312.1H463.3c-2.6-11.2-13.2-19.1-25-19.1c-14.5,0-26.3,11.9-26.3,26.3c0,14.5,11.8,26.3,26.3,26.3
		c11.8,0,22.4-7.9,25-19.1h262.9l-92.1,92.1l-14.5,14.5L485.9,566.9l-14.5,14.5h97c2.5,5.7,8.5,9.5,15.1,9.5
		c9.2,0,16.8-7.5,16.8-16.8c0-9.2-7.5-16.8-16.8-16.8c-6.6,0-12.5,3.8-15.1,9.5h-62L761.2,312.1L761.2,312.1z M438.3,333.8
		c-7.9,0-14.5-6.6-14.5-14.5c0-7.9,6.6-15.1,14.5-15.1c7.9,0,15.1,7.3,15.1,15.1C453.5,327.2,446.2,333.8,438.3,333.8z M583.5,564.9
		c5,0,9.2,4.2,9.2,9.2c0,5-4.2,9.6-9.2,9.6c-5,0-9.6-4.6-9.6-9.6C573.8,569.1,578.4,564.9,583.5,564.9z"/>
	<linearGradient id="SVGID_4_" gradientUnits="userSpaceOnUse" x1="238.825" y1="538.495" x2="751.005" y2="538.495">
		<stop  offset="0" style="stop-color:#F7941D"/>
		<stop  offset="1" style="stop-color:#F15A29"/>
	</linearGradient>
	<path class="st3" d="M725.3,649.1c-11.9,0-21,7.2-25,17.1h-73l-21-21h36.8c2.7,7.8,9.2,12.4,17.1,12.4c10.5,0,18.4-8.6,18.4-18.5
		c0-10.5-7.9-18.4-18.4-18.4c-7.9,0-14.4,5.2-17.1,12.3h-48.9l-0.5-0.5H356.6l51.3-51.3l14.5-14.5l179.3-179.4H397.4l-0.3,0.3H328
		c-2-7.3-9.2-11.9-17.1-11.9c-10.5,0-18.4,7.9-18.4,18.4c0,9.9,7.9,18.4,18.4,18.4c7.9,0,15.1-5.3,17.1-12.5h56.9l-21.1,21.5h-74.3
		c-3.3-10.5-13.2-17.1-24.4-17.1c-14.5,0-26.3,11.2-26.3,25.7s11.8,26.3,26.3,26.3c12.5,0,23-9.2,25.7-21h79L404,402h162.8
		l-16.7,16.7L322.3,646.5h265.5l33.5,34.2h78.3c2,11.8,12.5,20.4,25.7,20.4c14.5,0,25.7-11.8,25.7-26.3
		C751,660.9,739.8,649.1,725.3,649.1z M660.2,628.7c5.9,0,10.5,4.6,10.5,10.5c0,6-4.6,10.5-10.5,10.5c-6,0-10.5-4.6-10.5-10.5
		C649.7,633.3,654.2,628.7,660.2,628.7z M310.9,404.2c-5.9,0-10.5-4.6-10.5-9.9c0-5.9,4.6-10.5,10.5-10.5c6,0,10.5,4.6,10.5,10.5
		C321.4,399.6,316.8,404.2,310.9,404.2z M265.1,444.8c-7.9,0-14.5-6.6-14.5-14.5c0-7.9,6.6-14.5,14.5-14.5c7.9,0,15.1,6.6,15.1,14.5
		C280.3,438.2,273,444.8,265.1,444.8z M725.3,689.9c-8.5,0-15.1-6.6-15.1-15.1c0-7.2,6.6-14.5,15.1-14.5c7.9,0,14.5,7.2,14.5,14.5
		C739.8,683.3,733.2,689.9,725.3,689.9z"/>
</g>
</svg>
